<?xml version="1.0" encoding="utf-8"?>
<!-- Generator: Adobe Illustrator 19.0.0, SVG Export Plug-In . SVG Version: 6.00 Build 0)  -->
<svg version="1.1" id="图层_1" xmlns="http://www.w3.org/2000/svg" xmlns:xlink="http://www.w3.org/1999/xlink" x="0px" y="0px"
	 viewBox="-452 665.7 200 200" style="enable-background:new -452 665.7 200 200;" xml:space="preserve">
<style type="text/css">
	.st0{fill:url(#SVGID_1_);}
	.st1{fill:#F3F6F6;}
	.st2{fill:#F8FCFD;}
</style>
<radialGradient id="SVGID_1_" cx="-298.5003" cy="825.2029" r="175.6965" gradientTransform="matrix(1 0 0 -1 0 1532.1301)" gradientUnits="userSpaceOnUse">
	<stop  offset="0" style="stop-color:#FFFFFF"/>
	<stop  offset="0" style="stop-color:#FBF6A6"/>
	<stop  offset="0.1432" style="stop-color:#E1E6A7"/>
	<stop  offset="0.415" style="stop-color:#B4CBA8"/>
	<stop  offset="0.6581" style="stop-color:#94B8A8"/>
	<stop  offset="0.8614" style="stop-color:#80ACA9"/>
	<stop  offset="1" style="stop-color:#79A8A9"/>
	<stop  offset="1" style="stop-color:#6F9A9B"/>
	<stop  offset="1" style="stop-color:#557677"/>
	<stop  offset="1" style="stop-color:#3E5657"/>
	<stop  offset="1" style="stop-color:#2B3B3B"/>
	<stop  offset="1" style="stop-color:#1B2525"/>
	<stop  offset="1" style="stop-color:#0F1414"/>
	<stop  offset="1" style="stop-color:#060909"/>
	<stop  offset="1" style="stop-color:#010202"/>
	<stop  offset="1" style="stop-color:#000000"/>
</radialGradient>
<path class="st0" d="M-316.2,840.7h-79.4c-19.4,0-35.3-15.9-35.3-35.3V726c0-19.4,15.9-35.3,35.3-35.3h79.5
	c19.4,0,35.3,15.9,35.3,35.3v79.5C-280.9,824.8-296.8,840.7-316.2,840.7z"/>
<path class="st1" d="M-325.3,702.2h-61.3c-15.3,0-27.7,12.4-27.7,27.7v66.5c0,15.3,12.4,27.7,27.7,27.7h61.3
	c15.3,0,27.7-12.4,27.7-27.7v-66.4C-297.6,714.6-310,702.2-325.3,702.2L-325.3,702.2z M-305,796.3c0,11.2-9.1,20.3-20.3,20.3h-61.3
	c-11.2,0-20.3-9.1-20.3-20.3v-66.4c0-11.2,9.1-20.3,20.3-20.3h61.3c11.2,0,20.3,9.1,20.3,20.3V796.3L-305,796.3z"/>
<path class="st1" d="M-355.9,739.2c-14.6,0-26.5,11.9-26.5,26.5c0,14.6,11.9,26.5,26.5,26.5s26.5-11.9,26.5-26.5
	C-329.4,751.1-341.3,739.2-355.9,739.2z M-355.9,784.8c-10.6,0-19.2-8.6-19.2-19.2c0-10.6,8.6-19.2,19.2-19.2
	c10.6,0,19.2,8.6,19.2,19.2C-336.8,776.3-345.4,784.8-355.9,784.8z"/>
<path class="st2" d="M-327.5,715.4l-12.4,22.8l6.5,3.6l-10.6,19.5l29.2-17.8l-8.5-4.6l17.4-11.7C-306,727.2-327.5,715.4-327.5,715.4
	z"/>
</svg>
