<!-- Generator: Adobe Illustrator 19.0.0, SVG Export Plug-In  -->
<svg version="1.1"
	 xmlns="http://www.w3.org/2000/svg" xmlns:xlink="http://www.w3.org/1999/xlink" xmlns:a="http://ns.adobe.com/AdobeSVGViewerExtensions/3.0/"
	 x="0px" y="0px" width="250.2px" height="39.7px" viewBox="0 0 250.2 39.7"
	 style="overflow:scroll;enable-background:new 0 0 250.2 39.7;" xml:space="preserve">
<style type="text/css">
	.st0{fill:#77A4A4;}
	.st1{fill:#F4F7F7;}
</style>
<defs>
</defs>
<image style="overflow:visible;" width="833" height="833" id="XMLID_23_" xlink:href="d:\gmcc\桌面\作业\咔嚓APP\图标\咔嚓8个\我的.jpg"  transform="matrix(4.764110e-002 0 0 4.764110e-002 210.4735 0)">
</image>
<image style="overflow:visible;" width="833" height="833" id="XMLID_22_" xlink:href="d:\gmcc\桌面\作业\咔嚓APP\图标\咔嚓8个\首页.jpg"  transform="matrix(4.764110e-002 0 0 4.764110e-002 0 0)">
</image>
<image style="overflow:visible;" width="833" height="833" id="XMLID_21_" xlink:href="d:\gmcc\桌面\作业\咔嚓APP\图标\咔嚓8个\标签-订单.jpg"  transform="matrix(4.764110e-002 0 0 4.764110e-002 70.7051 0)">
</image>
<g id="XMLID_15_">
	<rect id="XMLID_20_" x="141.9" y="0.2" class="st0" width="39.4" height="39.4"/>
	<path id="XMLID_19_" class="st1" d="M169.4,36.7h-19.1c-2,0-3.7-1.6-3.7-3.7V7.3c0-2.3,1.8-4.1,4.1-4.1h15.8c2.3,0,4.1,1.8,4.1,4.1
		v14.1c0,3.1-2.5,5.7-5.7,5.7h-12.8c-0.5,0-1-0.4-1-1c0-0.5,0.4-1,1-1H165c2.1,0,3.7-1.7,3.7-3.7V7.3c0-1.2-1-2.2-2.2-2.2h-15.8
		c-1.2,0-2.2,1-2.2,2.2V33c0,1,0.8,1.7,1.7,1.7h19.1c3.1,0,5.6-2.5,5.6-5.6V5.9c0-0.5,0.4-1,1-1c0.5,0,1,0.4,1,1v23.3
		C176.8,33.4,173.5,36.7,169.4,36.7L169.4,36.7z"/>
	<path id="XMLID_18_" class="st1" d="M168.4,31.8h-16.3c-0.5,0-1-0.4-1-1c0-0.5,0.4-1,1-1h16.3c0.5,0,1,0.4,1,1
		C169.4,31.3,169,31.8,168.4,31.8L168.4,31.8z"/>
	<path id="XMLID_17_" class="st1" d="M169.4,36.7h-19.1c-2,0-3.7-1.6-3.7-3.7V7.3c0-2.3,1.8-4.1,4.1-4.1h15.8c2.3,0,4.1,1.8,4.1,4.1
		v14.1c0,3.1-2.5,5.7-5.7,5.7h-12.8c-0.5,0-1-0.4-1-1c0-0.5,0.4-1,1-1H165c2.1,0,3.7-1.7,3.7-3.7V7.3c0-1.2-1-2.2-2.2-2.2h-15.8
		c-1.2,0-2.2,1-2.2,2.2V33c0,1,0.8,1.7,1.7,1.7h19.1c3.1,0,5.6-2.5,5.6-5.6V5.9c0-0.5,0.4-1,1-1c0.5,0,1,0.4,1,1v23.3
		C176.8,33.4,173.5,36.7,169.4,36.7L169.4,36.7z"/>
	<path id="XMLID_16_" class="st1" d="M168.4,31.8h-16.3c-0.5,0-1-0.4-1-1c0-0.5,0.4-1,1-1h16.3c0.5,0,1,0.4,1,1
		C169.4,31.3,169,31.8,168.4,31.8L168.4,31.8z"/>
</g>
</svg>
