<?xml version="1.0" encoding="utf-8"?>
<!-- Generator: Adobe Illustrator 19.0.0, SVG Export Plug-In . SVG Version: 6.00 Build 0)  -->
<svg version="1.1" id="图层_1" xmlns="http://www.w3.org/2000/svg" xmlns:xlink="http://www.w3.org/1999/xlink" x="0px" y="0px"
	 viewBox="-452 665.7 200 200" style="enable-background:new -452 665.7 200 200;" xml:space="preserve">
<style type="text/css">
	.st0{fill:#79A8A9;}
	.st1{fill:#F4F7F7;}
</style>
<g>
	<rect x="-452" y="665.7" class="st0" width="200" height="200"/>
	<path class="st1" d="M-312.3,851.5h-97c-10.3,0-18.7-8.4-18.7-18.7v-131c0-11.5,9.4-20.9,20.9-20.9h80.4c11.5,0,20.9,9.4,20.9,20.9
		v71.4c0,15.9-12.9,28.8-28.8,28.8h-64.9c-2.7,0-4.9-2.2-4.9-4.9s2.2-4.9,4.9-4.9h64.9c10.5,0,19-8.5,19-19v-71.4
		c0-6.1-5-11.1-11.1-11.1h-80.4c-6.1,0-11.1,5-11.1,11.1v131c0,4.9,4,8.9,8.9,8.9h97c15.6,0,28.3-12.7,28.3-28.3V694.8
		c0-2.7,2.2-4.9,4.9-4.9s4.9,2.2,4.9,4.9v118.6C-274.3,834.4-291.4,851.5-312.3,851.5L-312.3,851.5z"/>
	<path class="st1" d="M-317.1,826.3h-82.7c-2.7,0-4.9-2.2-4.9-4.9s2.2-4.9,4.9-4.9h82.7c2.7,0,4.9,2.2,4.9,4.9
		S-314.4,826.3-317.1,826.3L-317.1,826.3z"/>
	<path class="st1" d="M-312.3,851.5h-97c-10.3,0-18.7-8.4-18.7-18.7v-131c0-11.5,9.4-20.9,20.9-20.9h80.4c11.5,0,20.9,9.4,20.9,20.9
		v71.4c0,15.9-12.9,28.8-28.8,28.8h-64.9c-2.7,0-4.9-2.2-4.9-4.9s2.2-4.9,4.9-4.9h64.9c10.5,0,19-8.5,19-19v-71.4
		c0-6.1-5-11.1-11.1-11.1h-80.4c-6.1,0-11.1,5-11.1,11.1v131c0,4.9,4,8.9,8.9,8.9h97c15.6,0,28.3-12.7,28.3-28.3V694.8
		c0-2.7,2.2-4.9,4.9-4.9s4.9,2.2,4.9,4.9v118.6C-274.3,834.4-291.4,851.5-312.3,851.5L-312.3,851.5z"/>
	<path class="st1" d="M-317.1,826.3h-82.7c-2.7,0-4.9-2.2-4.9-4.9s2.2-4.9,4.9-4.9h82.7c2.7,0,4.9,2.2,4.9,4.9
		S-314.4,826.3-317.1,826.3L-317.1,826.3z"/>
</g>
</svg>
