<?xml version="1.0" encoding="utf-8"?>
<!-- Generator: Adobe Illustrator 19.0.0, SVG Export Plug-In . SVG Version: 6.00 Build 0)  -->
<svg version="1.1" id="图层_1" xmlns="http://www.w3.org/2000/svg" xmlns:xlink="http://www.w3.org/1999/xlink" x="0px" y="0px"
	 viewBox="-452 665.7 200 200" style="enable-background:new -452 665.7 200 200;" xml:space="preserve">
<style type="text/css">
	.st0{fill:#F4F7F7;}
	.st1{fill:#79A8A9;}
</style>
<path class="st0" d="M-279.7,713v128.9c0,6.6-5.1,11.7-11.7,11.7h-121.1c-6.6,0-11.7-5.1-11.7-11.7V713c0-6.6,5.1-11.7,11.7-11.7
	h28.1v7.4h3.1v4.4c0,2.3,1.6,3.9,3.9,3.9h50.8c2.3,0,3.9-1.6,3.9-3.9v-4.4h4.7v-7.4h26.6C-284.8,701.3-279.7,706.3-279.7,713z"/>
<g>
	<path class="st1" d="M-346.1,783.3h-35.2c-2.3,0-3.9,1.6-3.9,3.9c0,2.4,1.6,3.9,3.9,3.9h35.2c2.3,0,3.9-1.6,3.9-3.9
		C-342.2,784.9-343.8,783.3-346.1,783.3z"/>
	<path class="st1" d="M-318.8,755.9h-62.5c-2.3,0-3.9,1.6-3.9,3.9c0,2.3,1.6,3.9,3.9,3.9h62.5c2.3,0,3.9-1.6,3.9-3.9
		C-314.9,757.5-316.5,755.9-318.8,755.9z"/>
	<path class="st1" d="M-326.6,689.5h-3.9c0-6.6-5.1-11.7-11.7-11.7h-19.5c-6.6,0-11.7,5.1-11.7,11.7h-3.9c-6.6,0-11.7,5.1-11.7,11.7
		V713c0,6.6,5.1,11.7,11.7,11.7h50.8c6.6,0,11.7-5.1,11.7-11.7v-11.7C-314.9,694.6-320,689.5-326.6,689.5z"/>
</g>
</svg>
