<?xml version="1.0" encoding="utf-8"?>
<!-- Generator: Adobe Illustrator 19.0.0, SVG Export Plug-In . SVG Version: 6.00 Build 0)  -->
<svg version="1.1" id="图层_1" xmlns="http://www.w3.org/2000/svg" xmlns:xlink="http://www.w3.org/1999/xlink" x="0px" y="0px"
	 viewBox="-452 665.7 200 200" style="enable-background:new -452 665.7 200 200;" xml:space="preserve">
<style type="text/css">
	.st0{fill:#F4F7F7;}
</style>
<path class="st0" d="M-350.8,773.8c-26.5,0-48-21.5-48-48c0-12.7,5.1-24.9,14.1-33.9c18.7-18.7,49.1-18.7,67.9,0s18.7,49.1,0,67.9
	C-325.8,768.8-338.1,773.8-350.8,773.8L-350.8,773.8z M-350.8,685.5c-22.3,0-40.4,18.1-40.4,40.4s18.1,40.4,40.4,40.4
	c22.2,0,40.3-18.1,40.3-40.4C-310.4,703.6-328.5,685.5-350.8,685.5z"/>
<path class="st0" d="M-270.5,854.1c0-44.3-36-80.3-80.3-80.3c-44.4,0-80.3,35.9-80.3,80.3H-270.5z"/>
<circle class="st0" cx="-350.8" cy="727.3" r="44.7"/>
</svg>
