<?xml version="1.0" encoding="utf-8"?>
<!-- Generator: Adobe Illustrator 19.0.0, SVG Export Plug-In . SVG Version: 6.00 Build 0)  -->
<svg version="1.1" id="图层_1" xmlns="http://www.w3.org/2000/svg" xmlns:xlink="http://www.w3.org/1999/xlink" x="0px" y="0px"
	 viewBox="-452 665.7 200 200" style="enable-background:new -452 665.7 200 200;" xml:space="preserve">
<style type="text/css">
	.st0{fill:#79A8A9;}
	.st1{fill:#F4F7F7;}
</style>
<path class="st0" d="M-296,742c0,0.8-0.3,1.5-0.8,1.9c-0.5,0.5-1.2,0.8-2,0.8h-100.3c-1.5,0-2.8-1.2-2.8-2.8c0-0.8,0.3-1.4,0.8-1.9
	c0.5-0.5,1.2-0.8,1.9-0.8h100.3C-297.2,739.3-296,740.5-296,742z"/>
<path class="st0" d="M-358,765c0,0.8-0.3,1.5-0.8,1.9c-0.5,0.5-1.2,0.8-2,0.8h-38.3c-1.5,0-2.8-1.2-2.8-2.8c0-0.8,0.3-1.4,0.8-1.9
	c0.5-0.5,1.2-0.8,1.9-0.8h38.3C-359.2,762.3-358,763.5-358,765z"/>
<path class="st1" d="M-273,731.3v-41.2h-158.2c-1.6,0-2.8,1.3-2.8,2.8v123.4c0,0.2,0,0.3,0,0.5l0,22c0,1,0.5,1.9,1.4,2.4
	c0.4,0.3,0.9,0.4,1.4,0.4c0.5,0,1-0.1,1.4-0.4l38.1-21.7h115.9c0.8,0,1.5-0.3,2-0.8c0.5-0.5,0.8-1.3,0.8-2L-273,731.3z M-401.8,765
	c0-0.8,0.3-1.4,0.8-1.9c0.5-0.5,1.2-0.8,1.9-0.8h38.3c1.5,0,2.8,1.2,2.8,2.8c0,0.8-0.3,1.5-0.8,1.9c-0.5,0.5-1.2,0.8-2,0.8h-38.3
	C-400.6,767.8-401.8,766.5-401.8,765z M-401.8,742c0-0.8,0.3-1.4,0.8-1.9c0.5-0.5,1.2-0.8,1.9-0.8h100.3c1.5,0,2.8,1.2,2.8,2.8
	c0,0.8-0.3,1.5-0.8,1.9c-0.5,0.5-1.2,0.8-2,0.8h-100.3C-400.6,744.8-401.8,743.5-401.8,742z"/>
</svg>
