<?xml version="1.0" encoding="utf-8"?>
<!-- Generator: Adobe Illustrator 19.0.0, SVG Export Plug-In . SVG Version: 6.00 Build 0)  -->
<svg version="1.1" id="图层_1" xmlns="http://www.w3.org/2000/svg" xmlns:xlink="http://www.w3.org/1999/xlink" x="0px" y="0px"
	 viewBox="-452 665.7 200 200" style="enable-background:new -452 665.7 200 200;" xml:space="preserve">
<style type="text/css">
	.st0{fill:#FFFFFF;}
	.st1{fill:#F4F7F7;}
</style>
<g>
	<path class="st0" d="M-266,750.8l-83-62.9c-1.4-1.1-3.4-1.1-4.9,0l-84.1,62.9c-1.7,1.3-2,3.8-0.7,5.5c0.8,1,1.9,1.5,3.1,1.5
		c0.8,0,1.7-0.3,2.4-0.8l10.5-7.8v91.4c0,2.2,1.8,4,4,4h51.2c2.2,0,4-1.8,4-4v-43.2h23.7v43.3c0,1,1.6,2,2.4,2.8
		c0.7,0.7,1.7,1.1,2.8,1.1h50.1c2.2,0,4-1.8,4-3.9v-91l9.8,7.4c1.7,1.3,4.2,1,5.5-0.7C-263.9,754.6-264.2,752.2-266,750.8z
		 M-288.5,745.4v91.2h-43.4l0-43.3c0-1-0.4-2-1.2-2.8c-0.8-0.7-1.7-1.2-2.8-1.2h-31.5c-2.2,0-4,1.8-4,4v43.3h-43.4v-92.7
		c0-0.2-0.1-0.4-0.1-0.6l63.4-47.4l63.2,47.9C-288.4,744.3-288.5,744.8-288.5,745.4z"/>
	<path class="st1" d="M-288.2,743.9c-0.2,0.5-0.3,1-0.3,1.5v91.2h-43.4l0-43.3c0-1-0.4-2-1.2-2.8c-0.8-0.7-1.7-1.2-2.8-1.2h-31.5
		c-2.2,0-4,1.8-4,4v43.3h-43.4v-92.7c0-0.2-0.1-0.4-0.1-0.6l63.4-47.4L-288.2,743.9z"/>
</g>
</svg>
