<?xml version="1.0" standalone="no"?><!DOCTYPE svg PUBLIC "-//W3C//DTD SVG 1.1//EN" "http://www.w3.org/Graphics/SVG/1.1/DTD/svg11.dtd"><svg t="1559050634134" class="icon" style="" viewBox="0 0 1024 1024" version="1.1" xmlns="http://www.w3.org/2000/svg" p-id="1450" xmlns:xlink="http://www.w3.org/1999/xlink" width="200" height="200"><defs><style type="text/css"></style></defs><path d="M976.104727 357.03466667c-3.584-12.008727-13.591273-20.48-25.320727-21.504l-269.218909-16.709818-142.894545-251.578182c-4.561455-11.450182-15.080727-18.850909-26.717091-18.850909-11.636364 0-22.155636 7.400727-26.763636 18.850909L340.712727 318.82084867 73.029818 334.46012167C61.300364 335.53066667 51.293091 344.00193967 47.755636 355.96412167 44.125091 367.97284867 47.662545 381.09866667 56.645818 389.19757567l210.571636 224.488727-72.471273 304.314182c-2.746182 12.148364 1.675636 24.855273 11.077818 32.302545 9.448727 7.354182 22.016 8.052364 32.116364 1.675636l274.059636-166.818909 274.757818 166.818909c4.608 2.932364 9.728 4.375273 14.848 4.375273 6.097455 0 12.148364-2.048 17.221818-6.050909 9.402182-7.447273 13.777455-20.154182 11.031273-32.302545l-75.264-305.664 212.619636-222.114909C976.197818 382.12266667 979.688727 368.99684867 976.104727 357.03466667zM898.932364 412.74957567l-203.962182 182.690909 87.272727 258.653091c2.327273 10.286545-1.396364 21.038545-9.402182 27.322182-4.375273 3.397818-9.495273 5.12-14.661818 5.12-4.375273 0-8.750545-1.256727-12.613818-3.723636l-233.565091-164.398545-232.96 164.398545c-8.564364 5.445818-19.269818 4.840727-27.275636-1.396364-8.005818-6.283636-11.729455-17.035636-9.402182-27.322182l84.898909-257.489455L124.928 411.81866667C117.294545 404.97648467 114.315636 393.85212167 117.387636 383.70521167 120.413091 373.60484867 128.930909 366.43684867 138.891636 365.55248467l227.514182 4.747636 122.833455-236.171636c3.863273-9.681455 12.8-15.965091 22.714182-15.965091 9.914182 0 18.850909 6.283636 22.714182 15.965091l121.437091 236.171636 228.864-3.863273c9.960727 0.884364 18.478545 8.052364 21.504 18.199273C909.544727 394.73648467 906.565818 405.86084867 898.932364 412.74957567z" fill="#282c37" p-id="1451"></path></svg>