<?xml version="1.0" standalone="no"?><!DOCTYPE svg PUBLIC "-//W3C//DTD SVG 1.1//EN" "http://www.w3.org/Graphics/SVG/1.1/DTD/svg11.dtd"><svg t="1559050647057" class="icon" style="" viewBox="0 0 1024 1024" version="1.1" xmlns="http://www.w3.org/2000/svg" p-id="1578" xmlns:xlink="http://www.w3.org/1999/xlink" width="200" height="200"><defs><style type="text/css"></style></defs><path d="M948.023096 423.75212c-6.084579-32.157397-26.673499-52.828182-52.440349-52.363601l-3.585665 0c-53.268204 0-96.601128-43.338041-96.601128-96.601128 0-16.60212 8.104585-35.847439 8.458649-36.671201 12.377912-27.977191 2.804882-62.245669-22.231327-79.710436l-1.060145-0.74599c-0.442068-0.315178-0.901533-0.600681-1.37123-0.862647L671.650605 97.055476c-0.416486-0.232291-0.848321-0.445138-1.284249-0.633427l-1.167592-0.5137c-8.29799-3.605108-17.33276-5.436826-26.857694-5.436826-19.363 0-38.474266 7.847735-51.102888 20.956288-13.93743 14.388708-51.098795 44.098357-76.990488 44.098357-26.126031 0-63.520709-30.297027-77.501118-44.937468-12.706393-13.388938-31.972179-21.388123-51.525514-21.388123-9.343809 0-18.218944 1.76418-26.368554 5.242398l-1.161453 0.48914c-0.465604 0.203638-0.925069 0.426719-1.372254 0.668219L244.982062 156.763346c-0.469698 0.25685-0.919952 0.533143-1.356904 0.839111l-1.094938 0.760317c-25.166169 17.483186-34.786271 51.756781-22.388916 79.738066 2.363837 5.483898 8.462742 22.666232 8.462742 36.686551 0 53.264111-43.338041 96.601128-96.602152 96.601128l-3.578502 0c-0.292666-0.005117-0.577145-0.008186-0.868787-0.008186-25.316595 0-45.561685 20.558222-51.581796 52.380998-0.945535 5.03262-9.262968 50.231031-9.262968 87.120197 0 36.890188 8.317433 82.083483 9.268084 87.13043 6.021134 31.813566 26.28055 52.367695 51.606355 52.367695 0.277316 0 0.551562-0.004093 0.832971-0.00921l3.583618 0c53.270251 0 96.602152 43.338041 96.602152 96.601128 0 16.553001-8.065699 35.752272-8.453533 36.667108-12.367679 27.947516-2.824325 62.215994 22.24463 79.762625l1.045819 0.731664c0.411369 0.285502 0.839111 0.551562 1.274016 0.799202l105.496729 58.993602c0.424672 0.237407 0.862647 0.455371 1.306762 0.649799l1.12052 0.493234c8.302083 3.643993 17.327644 5.494131 26.823925 5.494131 19.682271 0 38.971593-8.201799 51.601238-21.936615 13.520945-14.688537 52.102658-46.893007 78.68713-46.893007 26.891464 0 64.998363 32.239262 79.211063 47.818075 12.653181 13.966083 32.079626 22.314215 51.960419 22.319331l0.005117 0c9.320273 0 18.190291-1.787716 26.353205-5.314029l1.137916-0.490164c0.460488-0.193405 0.906649-0.416486 1.342578-0.659009l109.351524-60.434417c0.465604-0.261966 0.919952-0.542352 1.360997-0.847298l1.056052-0.741897c25.108864-17.498536 34.70543-51.738361 22.346961-79.68997-0.382717-0.896416-8.482185-20.146852-8.482185-36.725436 0-53.264111 43.338041-96.601128 96.601128-96.601128l3.594875 0c0.25685 0.005117 0.523933 0.005117 0.760317 0.00921 25.370831-0.004093 45.648666-20.559245 51.66059-52.338019 0.092098-0.48914 9.276271-48.946782 9.276271-87.160105C957.289134 473.935056 948.971701 428.785763 948.023096 423.75212L948.023096 423.75212zM918.089343 592.344886c-3.114944 16.490579-11.853979 27.574009-21.741163 27.574009l-0.300852-0.004093c-0.106424 0-0.207731-0.005117-0.315178-0.005117l-3.735068 0c-70.063729 0-127.062907 56.998155-127.062907 127.057791 0 23.335475 10.570753 47.867194 11.022031 48.898687 0.014326 0.029676 0.028653 0.063445 0.042979 0.097214 6.491855 14.625092 1.274016 33.261545-11.903098 42.446741l-0.420579 0.289596-107.995643 59.687404-0.460488 0.203638c-4.334725 1.86958-9.146311 2.819209-14.295588 2.819209-11.423167-0.004093-22.409382-4.606925-29.42517-12.347213-8.109702-8.885368-22.845311-22.540366-39.897685-34.216289-22.851451-15.642259-43.657312-23.572882-61.848627-23.572882-40.116673 0-86.576821 40.949644-101.101629 56.732096-6.860245 7.465019-18.046005 12.096503-29.185716 12.096503-5.257747 0-10.165524-0.984421-14.576997-2.921539l-0.447185-0.192382-104.202247-58.273195-0.406253-0.285502c-13.126972-9.18929-18.316158-27.860535-11.800767-42.529629 0.110517-0.251733 11.031241-25.220405 11.031241-48.927339 0-70.064752-56.999179-127.057791-127.059837-127.057791l-3.739161 0c-0.11154 0-0.223081 0-0.329505 0l-0.348947 0.00921c-9.844206 0-18.558681-11.083429-21.679765-27.564799-0.358157-1.89414-8.738012-46.76714-8.738012-81.477686 0-34.713616 8.379854-79.58764 8.738012-81.467453 3.115967-16.493649 11.821233-27.572986 21.650089-27.572986l0.349971 0c0.116657 0.004093 0.236384 0.004093 0.358157 0.004093l3.739161 0c70.060659 0 127.059837-56.999179 127.059837-127.058814 0-23.11751-10.218736-47.061852-11.06501-48.995901l0 0c-6.492878-14.630209-1.260713-33.261545 11.912307-42.412972l0.435928-0.304945 109.967554-60.403718 0.473791-0.203638c4.365424-1.860371 9.224082-2.805906 14.435781-2.805906 11.190877 0 22.468734 4.558829 29.470195 11.936867 7.996115 8.371668 22.500457 21.233604 39.219233 32.218796 22.38073 14.71412 42.684148 22.167882 60.337203 22.167882 17.483186 0 37.620829-7.309476 59.851133-21.73093 16.621563-10.782577 31.05325-23.408129 39.050388-31.662117 6.922666-7.193843 18.113543-11.661597 29.191856-11.661597 5.324262 0 10.275018 0.978281 14.674211 2.891863l0.469698 0.208754 106.20281 59.000765 0.450255 0.314155c13.148461 9.175987 18.35095 27.836999 11.844769 42.48051-0.11154 0.25378-11.045567 25.108864-11.045567 48.963155 0 70.059636 56.999179 127.058814 127.057791 127.058814l3.740184 0c0.115634 0 0.228197 0 0.343831-0.004093l0.324388 0c9.853415 0 18.568914 11.079336 21.687952 27.564799 0.35918 1.889023 8.739035 46.714951 8.739035 81.471546C926.833495 546.235732 918.181441 591.860862 918.089343 592.344886L918.089343 592.344886zM510.114558 346.159928c-90.51655 0-164.156734 73.639161-164.156734 164.15571 0 90.51655 73.640184 164.15571 164.156734 164.15571 90.517573 0 164.16185-73.639161 164.16185-164.15571C674.276409 419.799088 600.632131 346.159928 510.114558 346.159928L510.114558 346.159928zM510.114558 644.015709c-73.726142 0-133.700071-59.978023-133.700071-133.699048 0-73.721025 59.97393-133.700071 133.700071-133.700071 73.722048 0 133.705188 59.979046 133.705188 133.700071C643.819746 584.037686 583.836607 644.015709 510.114558 644.015709L510.114558 644.015709zM510.114558 644.015709" fill="#282c37" p-id="1579"></path></svg>