<?xml version="1.0" standalone="no"?><!DOCTYPE svg PUBLIC "-//W3C//DTD SVG 1.1//EN" "http://www.w3.org/Graphics/SVG/1.1/DTD/svg11.dtd"><svg t="1560709589369" class="icon" style="" viewBox="0 0 1024 1024" version="1.1" xmlns="http://www.w3.org/2000/svg" p-id="1140" xmlns:xlink="http://www.w3.org/1999/xlink" width="200" height="200"><defs><style type="text/css"></style></defs><path d="M512 119.6C264.5 119.6 62.9 287.9 62.9 494.9c0 87.3 35.1 167.4 95.4 231.3l0 0c0 0-4.5 158.4-37.8 179.1 0 0 121.5 0 198.9-70.2 58.5 23.4 123.3 36 192.6 36 247.5 0 449.1-168.3 449.1-375.3C961.1 287.9 759.5 119.6 512 119.6zM512 834.2c-63 0-123.3-11.7-179.1-33.3-4.5-1.8-9-2.7-13.5-2.7-9 0-17.1 3.6-24.3 9-34.2 31.5-80.1 46.8-116.1 54 3.6-14.4 6.3-30.6 8.1-49.5 4.5-36 6.3-69.3 6.3-81 1.8-10.8-1.8-21.6-9-29.7-55.8-59.4-85.5-131.4-85.5-206.1 0-187.2 185.4-339.3 413.1-339.3s413.1 152.1 413.1 339.3C925.1 682.1 739.7 834.2 512 834.2z" p-id="1141"></path><path d="M344.6 512m-48.6 0a4.74609375 4.74609375 0 1 0 97.2 0 4.74609375 4.74609375 0 1 0-97.2 0Z" p-id="1142"></path><path d="M525.5 512m-48.6 0a4.74609375 4.74609375 0 1 0 97.2 0 4.74609375 4.74609375 0 1 0-97.2 0Z" p-id="1143"></path><path d="M706.4 512m-48.6 0a4.74609375 4.74609375 0 1 0 97.2 0 4.74609375 4.74609375 0 1 0-97.2 0Z" p-id="1144"></path></svg>