<?xml version="1.0" standalone="no"?><!DOCTYPE svg PUBLIC "-//W3C//DTD SVG 1.1//EN" "http://www.w3.org/Graphics/SVG/1.1/DTD/svg11.dtd"><svg t="1559050574747" class="icon" style="" viewBox="0 0 1024 1024" version="1.1" xmlns="http://www.w3.org/2000/svg" p-id="1052" xmlns:xlink="http://www.w3.org/1999/xlink" width="200" height="200"><defs><style type="text/css"></style></defs><path d="M927.46782881 454.32740059a448.50034687 448.50034687 0 0 0-119.47055362-261.66936358C728.62502012 108.10421036 623.52155146 62 512 62S295.37497988 108.10421036 216.00272481 192.65803701A448.50034687 448.50034687 0 0 0 96.53217119 454.32740059 76.54594307 76.54594307 0 0 0 93.94138584 473.81717568v83.67060411a76.92867334 76.92867334 0 0 0 153.8573458 0V473.81717568A76.89923261 76.89923261 0 0 0 141.04658164 402.92385576C183.08796875 227.45700107 333.47130752 97.27001562 512 97.27001562s328.91203125 130.18698545 370.95341836 305.65384014a76.89923261 76.89923261 0 0 0-106.75215 70.65779414v83.67060411A76.54594307 76.54594307 0 0 0 877.06526856 630.50083438c-40.45158721 142.31657373-147.91031543 245.06478193-285.63413203 267.14534238a43.2190169 43.2190169 0 1 0 3.12071923 35.32889707c168.75436464-25.67233213 296.76273487-160.45207383 327.96992724-342.74918232a76.54594307 76.54594307 0 0 0 7.36018682-32.62034795V473.81717568a76.54594307 76.54594307 0 0 0-2.41414101-19.48977509z m-756.62721035-22.08056046a41.629217 41.629217 0 0 1 41.57033555 41.57033555v83.67060411a41.59977627 41.59977627 0 0 1-83.19955255 0v-54.87755274q0-20.96181211 2.00197091-41.21704687a41.629217 41.629217 0 0 1 39.62724609-29.14634005z m682.25988164 166.8112752a41.629217 41.629217 0 0 1-41.57033555-41.57033554V473.81717568a41.57033555 41.57033555 0 0 1 81.19758164-12.4239955q1.94308945 20.43187911 2.0019709 41.21704687a481.06181425 481.06181425 0 0 1-5.88814892 76.54594307 41.57033555 41.57033555 0 0 1-35.68218663 19.90194521z" fill="#282c37" p-id="1053"></path></svg>